<?xml version="1.0" encoding="utf-8"?>
<!-- Generator: Adobe Illustrator 22.0.0, SVG Export Plug-In . SVG Version: 6.00 Build 0)  -->
<svg version="1.1" xmlns="http://www.w3.org/2000/svg" xmlns:xlink="http://www.w3.org/1999/xlink" x="0px" y="0px"
	 viewBox="0 0 3024 4032" style="enable-background:new 0 0 3024 4032;" xml:space="preserve">
<style type="text/css">
	.st0{display:none;}
	.st1{display:inline;fill:#606060;}
	.st2{display:inline;}
	.st3{fill:#47A7B4;}
	.st4{fill:#293E5F;}
</style>
<g id="Layer_2" class="st0">
	<circle class="st1" cx="-471.2" cy="-2.5" r="54.5"/>
	<path class="st1" d="M-404.8,138v67.6c0,0.8-0.1,1.6-0.2,2.4c-3.4,19-10.8,31.3-18.8,36.4l-15.5,99.6H-503l-15.5-99.6
		c-8.1-5-15.5-17.4-18.8-36.4c-0.1-0.8-0.2-1.6-0.2-2.4V138c0-36.5,29.6-66,66-66h0.7C-434.4,72-404.8,101.5-404.8,138z"/>
	<g id="Ee32F2_1_" class="st2">
		<image style="overflow:visible;" width="3024" height="4032" id="Ee32F2" xlink:href="85C2F31A6E5B017E.jpg" >
		</image>
	</g>
</g>
<g id="Layer_3">
	<g>
		
			<ellipse transform="matrix(0.9189 -0.3945 0.3945 0.9189 -304.4366 883.6821)" class="st3" cx="1996.8" cy="1182.2" rx="291" ry="416.5"/>
		
			<ellipse transform="matrix(0.4094 -0.9124 0.9124 0.4094 148.4692 1703.3892)" class="st4" cx="1389.9" cy="737" rx="416.5" ry="291"/>
		<path class="st3" d="M904.8,1201c92,50,269,166,498,677c85.3,190.4,295.4,437.4,563,434c396-5,521-300,580-402
			c87.2-150.7,83-396,0-416s-175.6,68.1-235,195c-96,205-226.7,318.4-334,342c-132,29-273-34-375-179
			c-112.2-159.5-193.6-374.3-346-528C1144.8,1212,904.8,1201,904.8,1201z"/>
		<path class="st4" d="M2298.8,2672c-330.6,192.3-907,135-1091-114l-27.6,522.9c-340.2-172.4-613.6-532.5-752.9-988.3
			c-45.3-148.1-47-306.4-3.1-454.9c50.7-171.4,156-314,355.6-364.7c225.7-42.4,410.4,377.9,505,616c68.6,172.7,355.2,728,939,484
			c311-130,371-427,402-484C2625.8,1889,2702.8,2437,2298.8,2672z"/>
		<path class="st3" d="M2474.6,2775.9c-227.2,259.7-519.9,416.1-839.3,416.1c-45,0-89.4-3.1-133.3-9.2h0
			c-134.6-124.2-201.2-383.8-201.2-383.8C1678.8,3067,2474.6,2775.9,2474.6,2775.9z"/>
	</g>
	<g>
		<path class="st4" d="M951.5,3519.7c-1.9,2.3-3.7,4.1-5.4,5.4c-1.8,1.3-4.3,2-7.6,2c-3.3,0-6.8-1.3-10.4-3.9
			c-3.6-2.6-8.2-5.4-13.6-8.4c-5.5-3-12.1-5.8-19.8-8.4c-7.8-2.6-17.3-3.9-28.7-3.9c-14.9,0-28,2.7-39.4,8.1
			c-11.4,5.4-20.8,13-28.4,22.9c-7.5,9.9-13.3,22-17.2,36.3c-3.9,14.3-5.9,30.3-5.9,48c0,18.4,2.1,34.8,6.2,49.1
			c4.1,14.4,10,26.5,17.7,36.3c7.6,9.8,16.9,17.3,27.9,22.3c11,5.1,23.1,7.6,36.6,7.6c13,0,23.8-1.6,32.2-4.8
			c8.5-3.2,15.5-6.7,21.1-10.4s10.2-7.2,14-10.4c3.7-3.2,7.5-4.8,11.5-4.8c5,0,8.8,1.9,11.5,5.6l17.4,22.3
			c-7.2,8.9-15.3,16.4-24.3,22.6c-9,6.2-18.6,11.3-28.7,15.2c-10.1,3.9-20.7,6.8-31.8,8.7c-11.1,1.9-22.3,2.8-33.6,2.8
			c-19.6,0-38-3.6-55-10.8c-17.1-7.2-31.8-17.8-44.3-31.6c-12.5-13.8-22.4-30.8-29.6-51c-7.2-20.2-10.8-43-10.8-68.7
			c0-23.4,3.3-45,9.8-64.8s16.1-36.9,28.8-51.3c12.7-14.4,28.4-25.6,47-33.8c18.6-8.2,39.9-12.2,63.9-12.2
			c22.5,0,42.4,3.6,59.5,10.8c17.2,7.2,32.4,17.5,45.9,30.7L951.5,3519.7z"/>
		<path class="st3" d="M1187.1,3455.8c23.1,0,44.1,3.8,62.8,11.3c18.7,7.5,34.6,18.4,47.7,32.6c13.1,14.2,23.2,31.2,30.2,51.1
			c7,19.9,10.5,42.3,10.5,67.1s-3.5,47.2-10.5,67.3c-7,20-17.1,37.1-30.2,51.1c-13.1,14.1-29,24.9-47.7,32.4
			c-18.7,7.5-39.6,11.3-62.8,11.3c-23.4,0-44.4-3.8-63.1-11.3c-18.7-7.5-34.7-18.3-47.9-32.4c-13.2-14.1-23.4-31.1-30.5-51.1
			c-7.1-20-10.7-42.5-10.7-67.3s3.6-47.2,10.7-67.1c7.1-19.9,17.3-37,30.5-51.1c13.2-14.2,29.2-25,47.9-32.6
			C1142.7,3459.6,1163.8,3455.8,1187.1,3455.8z M1187.1,3732.9c29.8,0,52-10,66.6-30.1c14.7-20,22-48.3,22-84.6
			c0-36.4-7.3-64.6-22-84.8c-14.7-20.2-36.9-30.2-66.6-30.2c-30.2,0-52.7,10.1-67.4,30.2c-14.8,20.1-22.2,48.4-22.2,84.8
			c0,36.4,7.4,64.6,22.2,84.6C1134.5,3722.9,1156.9,3732.9,1187.1,3732.9z"/>
		<path class="st4" d="M1701.1,3460.8l-127.7,315h-54.6l-127.7-315h49.9c4.8,0,8.7,1.1,11.8,3.4c3.1,2.3,5.2,5.2,6.2,8.7l75.3,193.4
			c2.7,8.1,5,16.1,7,24c2,8,3.8,15.9,5.4,23.7c1.7-7.9,3.5-15.7,5.6-23.6c2.1-7.9,4.5-15.9,7.4-24.2l76.3-193.4
			c1.2-3.5,3.4-6.4,6.5-8.7c3.1-2.3,6.8-3.4,11.2-3.4H1701.1z"/>
		<path class="st4" d="M2030,3730.8c-7.4,8.7-16,16.2-25.7,22.5c-9.7,6.3-20,11.4-31,15.3c-11,3.9-22.3,6.8-33.9,8.7
			c-11.7,1.9-23.2,2.8-34.6,2.8c-21.7,0-41.8-3.7-60.3-11c-18.5-7.3-34.5-18.1-48-32.2c-13.5-14.2-24.1-31.7-31.6-52.7
			c-7.5-21-11.3-45.1-11.3-72.4c0-21.9,3.4-42.3,10.2-61.2c6.8-18.9,16.6-35.4,29.3-49.4c12.7-14.1,28.3-25.1,46.7-33.2
			c18.4-8.1,39.1-12.1,62-12.1c19.2,0,36.9,3.2,53.2,9.5c16.2,6.3,30.2,15.5,42,27.4c11.8,12,21,26.8,27.7,44.3
			c6.7,17.6,10.1,37.6,10.1,60.1c0,9.3-1,15.6-3.1,18.8c-2.1,3.2-5.9,4.8-11.5,4.8h-206.5c0.6,18.8,3.3,35.2,8.1,49.1
			c4.8,14,11.3,25.6,19.7,34.9s18.3,16.2,29.9,20.8c11.6,4.5,24.5,6.8,38.8,6.8c13.4,0,25.1-1.5,34.9-4.6
			c9.8-3.1,18.3-6.5,25.4-10.1c7.1-3.6,13.1-7,18-10.1c4.9-3.1,9.1-4.6,12.9-4.6c5,0,8.8,1.9,11.5,5.6L2030,3730.8z M1980.1,3583.2
			c0-12-1.7-23-5.1-33.2c-3.4-10.1-8.4-18.9-15-26.4c-6.6-7.4-14.7-13.2-24.2-17.4c-9.5-4.1-20.5-6.2-32.9-6.2
			c-25.4,0-45.4,7.3-60,22c-14.6,14.7-23.8,35-27.7,61.1H1980.1z"/>
		<path class="st4" d="M2187.8,3521.2c10.1-20.7,22.3-36.9,36.6-48.7c14.3-11.8,31.4-17.7,51.5-17.7c6.8,0,13.3,0.8,19.4,2.3
			c6.1,1.6,11.4,3.9,16,7l-4,45.6c-1.4,5.6-4.9,8.4-10.2,8.4c-2.9,0-7.2-0.6-13-1.7c-5.8-1.1-12-1.7-18.6-1.7
			c-9.7,0-18.3,1.4-25.7,4.2c-7.4,2.8-14.1,6.9-20,12.4c-5.9,5.5-11.1,12.2-15.7,20.1c-4.5,8-8.8,17-12.7,27.1v197.2h-60.5v-315
			h34.7c6.6,0,11.1,1.2,13.5,3.6c2.4,2.4,4.1,6.6,5.1,12.6L2187.8,3521.2z"/>
	</g>
</g>
</svg>
